<svg width="15" height="10" viewBox="0 0 15 10" fill="none" xmlns="http://www.w3.org/2000/svg">
<path fill-rule="evenodd" clip-rule="evenodd" d="M8.51385 9.6505C8.51383 9.71386 8.49457 9.77603 8.45813 9.83035C8.42169 9.88468 8.36946 9.92911 8.30699 9.95891C8.24452 9.98871 8.17419 10.0028 8.1035 9.99955C8.0328 9.99634 7.96442 9.97599 7.90564 9.94069L0.172736 5.29056C0.119564 5.25857 0.0760044 5.21538 0.0458784 5.16477C0.0157525 5.11417 0 5.0577 0 5.00036C0 4.94302 0.0157525 4.88656 0.0458784 4.83595C0.0760044 4.78534 0.119564 4.74215 0.172736 4.71017L7.90564 0.0593234C7.96441 0.0240181 8.0328 0.00366853 8.1035 0.000460815C8.17419 -0.0027469 8.24452 0.0112993 8.30699 0.0410983C8.36946 0.0708973 8.42169 0.115335 8.45813 0.169662C8.49457 0.223989 8.51383 0.286151 8.51385 0.349508V2.80482H14.1731C14.2766 2.80487 14.3759 2.8417 14.4491 2.90722C14.5223 2.97274 14.5634 3.0616 14.5635 3.15425V6.84646C14.5635 6.93914 14.5223 7.02802 14.4491 7.09355C14.3759 7.15908 14.2766 7.1959 14.1731 7.1959L8.51386 7.1959L8.51385 9.6505Z" fill="white"/>
</svg>
