<svg viewBox="0 0 500 500" xmlns="http://www.w3.org/2000/svg"><path d="m464.5 113.47q-2.38-4-5-7.9c-23.17-34.35-63.06-57.84-102.3-68.46a231.87 231.87 0 0 0 -52.71-7.69c-116.62-4-163.07 88-201.61 111.67s-97.88 64.24-93.88 149.23 65.22 165 183.81 170 126.5-48.42 192.71-68.19c43.82-13.08 75-57.26 90.2-98.09 20.78-55.66 19.8-127.93-11.22-180.57z" fill="#385489"/><path d="m464.5 113.47q-2.38-4-5-7.9c-23.17-34.35-63.06-57.84-102.3-68.46a231.87 231.87 0 0 0 -52.71-7.69c-116.62-4-163.07 88-201.61 111.67s-97.88 64.24-93.88 149.23 65.22 165 183.81 170 126.5-48.42 192.71-68.19c43.82-13.08 75-57.26 90.2-98.09 20.78-55.66 19.8-127.93-11.22-180.57z" fill="#fff" opacity=".7"/><path d="m438.56 121.49v-3.29h-60.86v-48.78h-1.98v48.78h-60.43v3.29h60.43v45.16h-60.43v3.3h60.43v45.16h-60.43v3.29h60.43v47.45h1.98v-47.45h60.86v-3.29h-60.86v-45.16h60.86v-3.3h-60.86v-45.16z" fill="#263238" stroke="#263238" stroke-miterlimit="10"/><path d="m311.12 65.46v205.67h131.18v-205.67zm126.75 198.72h-122.32v-191.78h122.32z" fill="#263238" stroke="#263238" stroke-miterlimit="10"/><path d="m254 323.92a.1.1 0 0 0 -.06-.13.1.1 0 0 0 -.13.06 132 132 0 0 0 -6.94 21.75 202 202 0 0 0 -3.87 22.55l-.54 5.7c-.08.95-.19 1.9-.26 2.85l-.15 2.86c-.08 1.91-.2 3.82-.26 5.73l.06 5.73.06 2.86c0 .95.11 1.91.18 2.86.14 1.9.26 3.81.43 5.71.37 3.8.94 7.57 1.52 11.34a.11.11 0 0 0 .1.08.09.09 0 0 0 .1-.1c0-1.91-.09-3.8-.13-5.71s-.22-3.78-.19-5.68 0-3.8-.06-5.69l-.06-2.84v-2.84-5.68l.15-5.67.06-2.84c0-.95.11-1.89.16-2.84l.35-5.67a200.9 200.9 0 0 1 3.21-22.49 131.72 131.72 0 0 1 6.27-21.9z" fill="#263238"/><path d="m254.81 353.6a.1.1 0 0 0 -.06-.12.1.1 0 0 0 -.13.06 132.44 132.44 0 0 0 -6.43 29.24c-.5 5-1.06 9.94-1.13 14.94a127.13 127.13 0 0 0 .53 15 .11.11 0 0 0 .09.08.09.09 0 0 0 .11-.08c.58-5 .93-9.94 1.28-14.9s.4-9.93.72-14.89a148.32 148.32 0 0 1 5-29.31z" fill="#263238"/><path d="m271.27 364.05a.1.1 0 0 0 -.14 0 50.06 50.06 0 0 0 -11 9.59 44.64 44.64 0 0 0 -4.3 6l-.88 1.67-.7 1.74a15.71 15.71 0 0 0 -.6 1.75c-.18.6-.38 1.18-.54 1.78a71 71 0 0 0 -2.27 14.52 84 84 0 0 0 .54 14.62.11.11 0 0 0 .1.08.09.09 0 0 0 .1-.09l1.26-14.47a127.64 127.64 0 0 1 1.83-14.27c.13-.59.3-1.15.45-1.73a16 16 0 0 1 .5-1.71l.59-1.67.76-1.58a43.25 43.25 0 0 1 3.94-6 49.72 49.72 0 0 1 10.33-10.05.11.11 0 0 0 .03-.18z" fill="#263238"/><path d="m263.3 382.64a16.06 16.06 0 0 0 -5 6 35.33 35.33 0 0 0 -2.81 7.37c-.19.63-.35 1.27-.49 1.91l-.45 1.92a34.52 34.52 0 0 0 -.49 3.91c0 1.32-.05 2.63 0 3.94a34.57 34.57 0 0 0 .51 3.91.13.13 0 0 0 .08.08.1.1 0 0 0 .12-.08 35.91 35.91 0 0 0 .7-3.85c.2-1.28.4-2.54.55-3.81s.35-2.52.45-3.79.27-2.54.55-3.78a34.19 34.19 0 0 1 2.14-7.3 16.18 16.18 0 0 1 4.2-6.27.09.09 0 0 0 0-.13.11.11 0 0 0 -.06-.03z" fill="#263238"/><path d="m240.22 397.14c-.54-6.42-1.6-12.79-2.6-19.14s-2.12-12.7-3.28-19-2.46-12.63-3.83-18.91a.1.1 0 1 0 -.19 0c1.1 6.34 2.09 12.69 3 19.05s1.87 12.71 2.68 19.08 1.4 12.77 2.19 19.13l2.35 19.13a.12.12 0 0 0 .1.09.11.11 0 0 0 .11-.1c.07-1.61.07-3.22.11-4.84s-.07-3.22-.09-4.83c-.03-3.23-.31-6.44-.55-9.66z" fill="#263238"/><path d="m236.37 397.05c-.35-2.55-.81-5.08-1.3-7.6l-.9-3.75c-.3-1.25-.58-2.5-.94-3.74a105.84 105.84 0 0 0 -4.92-14.61l-.77-1.77-.85-1.73c-.55-1.16-1.2-2.27-1.83-3.4a28.58 28.58 0 0 0 -4.64-6.14.09.09 0 0 0 -.13 0 .1.1 0 0 0 0 .14 28 28 0 0 1 4.24 6.29c.56 1.14 1.15 2.26 1.63 3.44l.76 1.75.67 1.79a105.45 105.45 0 0 1 4.28 14.61c.58 2.47 1 5 1.45 7.49l.6 3.76c.22 1.25.49 2.5.66 3.76.4 2.51.87 5 1.3 7.53s.85 5 1.39 7.55a.11.11 0 0 0 .09.09.11.11 0 0 0 .11-.1q0-3.85-.18-7.7c-.15-2.56-.46-5.11-.72-7.66z" fill="#263238"/><path d="m231.05 397.38c-1.19-3.38-2.57-6.68-4.07-9.91a86.8 86.8 0 0 0 -5.12-9.38.1.1 0 1 0 -.17.1 87.62 87.62 0 0 1 4.37 9.68c1.3 3.28 2.48 6.62 3.46 10s1.73 6.83 2.63 10.23 1.71 6.83 2.76 10.27a.1.1 0 0 0 .09.07.11.11 0 0 0 .11-.1 51.83 51.83 0 0 0 -1-10.69 66.72 66.72 0 0 0 -3.06-10.27z" fill="#263238"/><path d="m230.83 408.61a23.15 23.15 0 0 0 -2.83-5.94 24.44 24.44 0 0 0 -4.12-5.11 19.36 19.36 0 0 0 -2.62-2 10.92 10.92 0 0 0 -3-1.34.1.1 0 0 0 -.11.06.1.1 0 0 0 0 .13 14.89 14.89 0 0 1 4.93 3.83 23.66 23.66 0 0 1 3.43 5.2c1 1.84 1.48 3.88 2.33 5.79.37 1 .74 1.95 1.18 2.93a23.09 23.09 0 0 0 1.29 3 .11.11 0 0 0 .09.05.09.09 0 0 0 .1-.09 22.57 22.57 0 0 0 -.12-3.29c-.07-1.09-.29-2.16-.55-3.22z" fill="#263238"/><path d="m231.23 349.25a18.29 18.29 0 0 1 -13-13.76c-2.43-11.34 5.4-6.48-1.62-24.3s-5.4-21.87-3-27 3.78-3.51 5.94 3.24 10 17.28 13 37-1.32 24.82-1.32 24.82z" fill="#385489"/><path d="m252 330.09s-7-2.43-7.29-15.66 5.13-10.53 5.94-27 1.89-28.08 4.86-28.35 10.8 8.1 13.5 26.46-3.51 30.51-8.91 35.91-8.1 8.64-8.1 8.64z" fill="#385489"/><path d="m227.45 365.18s-1.62-9.72-4.86-14.31-10.26-8.64-14.85-17.54-9.72-13.23-9.45-.54 5.94 19.16 13 23.48 16.16 8.91 16.16 8.91z" fill="#385489"/><path d="m224.48 381.92s-6.48-12.42-15.93-21.6-17-13.77-14.31-9.18 5.94 4.32 10.53 12.42 3.24 14 9.72 18.63 9.99-.27 9.99-.27z" fill="#385489"/><path d="m223.67 397.85c-.27-.81-.54-6.75-9.72-11.61s-17.82-3-16.74-.54 6.75 6.48 12.42 8.91 14.04 3.24 14.04 3.24z" fill="#385489"/><path d="m251.47 365.72s-4.05-5.13-1.89-15.93 7-8.1 12.42-13.77 4.32-6.47 9.72-12.41 10.26-9.18 12.42-6.75-1.08 10-4.32 14.31-8.37 6.47-10.82 11.83-1.35 14-7.56 18.09-9.97 4.63-9.97 4.63z" fill="#385489"/><path d="m265 368.69s9.72-11.07 16.74-19.17 9.72-14.3 10-8.91 2.43 9.72-3.24 16.74-23.5 11.34-23.5 11.34z" fill="#385489"/><path d="m259.84 386.51s-.27-4.32 15.12-14.31 21.87-11.88 20.25-7.83-8.37 8.1-15.66 15.39-19.71 6.75-19.71 6.75z" fill="#385489"/><path d="m231.87 348.1s-3.61-19.36-7.39-33.13-6.21-22.14-6.21-22.14" fill="none" stroke="#263238" stroke-linecap="round" stroke-linejoin="round"/><path d="m251.39 330.29s6.56-21 8.72-33.68-.27-22.14-1.35-27.81" fill="none" stroke="#263238" stroke-linecap="round" stroke-linejoin="round"/><path d="m226.6 364.78a101.76 101.76 0 0 0 -9.95-14.18c-5.94-7-10.53-10.8-13.23-17.54" fill="none" stroke="#263238" stroke-linecap="round" stroke-linejoin="round"/><path d="m251.47 365.72s2.16-13 7.29-19.71 15.39-17.27 19.44-24" fill="none" stroke="#263238" stroke-linecap="round" stroke-linejoin="round"/><path d="m223 397.55s-9.08-5.91-15.56-9.15" fill="none" stroke="#263238" stroke-linecap="round" stroke-linejoin="round"/><path d="m252.89 454.81h-18.76l-9.38-46.97h37.52z" fill="#263238" stroke="#263238" stroke-linecap="round" stroke-linejoin="round"/><path d="m64.8 454.81h425.18" fill="none" stroke="#263238" stroke-miterlimit="10"/><path d="m31.18 454.81h26.37" fill="none" stroke="#263238" stroke-miterlimit="10"/><path d="m216.14 167v-31.5h-2.85v-40.31a24.85 24.85 0 0 0 -24.85-24.86h-133.52a24.86 24.86 0 0 0 -24.86 24.86v317.43a24.86 24.86 0 0 0 24.86 24.86h133.52a24.85 24.85 0 0 0 24.85-24.86v-218.77h2.85v-18.61h-2.85v-8.24z" fill="#707070" stroke="#263238" stroke-linejoin="round"/><path d="m184.08 434.05h-124.81a26.33 26.33 0 0 1 -26.33-26.33v-307.63c0-14.55 7.46-26.34 26.33-26.34h124.81c17.31-.23 26.34 11.79 26.34 26.34v307.63a26.33 26.33 0 0 1 -26.34 26.33z" fill="#263238" stroke="#263238" stroke-linejoin="round"/><path d="m131.34 77.8-.05.19c-1.46 5.44-4.82 9-8.54 9h-2.14c-3.72 0-7.08-3.52-8.54-9v-.19l-52.08-.18a21.92 21.92 0 0 0 -21.99 21.91l-.07 304.94c0 14.21 11.12 25.73 24.85 25.73h117.84c13.73 0 24.86-11.52 24.86-25.73v-307.13a19 19 0 0 0 -18.78-19z" fill="#fff" stroke="#263238" stroke-miterlimit="10"/><path d="m205.46 102.88v-5.54a19 19 0 0 0 -18.78-19l-55.34-.57-.05.19c-1.46 5.44-4.82 9-8.54 9h-2.14c-3.72 0-7.08-3.52-8.54-9v-.19l-52.08-.18a21.92 21.92 0 0 0 -21.99 21.94v3.35z" fill="#dbdbdb" stroke="#263238" stroke-miterlimit="10"/><path d="m123.5 77.2a2.34 2.34 0 1 0 -2.33 2.34 2.33 2.33 0 0 0 2.33-2.34z" fill="#707070"/><path d="m54.4 83.14c0 2.37-2.65 3.22-2.66 5v.12h2.57v.79h-3.43v-.65c0-2.53 2.65-3 2.65-5.22 0-.81-.27-1.23-.92-1.23s-.92.46-.92 1.15v.69h-.81v-.63c0-1.2.54-2 1.75-2s1.77.84 1.77 1.98z" fill="#263238"/><path d="m58.69 83.13v.2a1.57 1.57 0 0 1 -1 1.62 1.55 1.55 0 0 1 1 1.62v.6c0 1.2-.56 2-1.77 2s-1.76-.78-1.76-2v-.53h.84v.59c0 .7.29 1.13.92 1.13s.91-.42.91-1.21v-.6c0-.78-.32-1.15-1-1.17h-.47v-.78h.51a.94.94 0 0 0 .94-1.08v-.35c0-.81-.28-1.22-.91-1.22s-.92.43-.92 1.14v.4h-.82v-.36c0-1.19.56-2 1.76-2s1.77.81 1.77 2z" fill="#263238"/><path d="m60.38 83.73v1.08h-.84v-1.08zm0 4.26v1.08h-.84v-1.07z" fill="#263238"/><path d="m62.14 84.43a1.28 1.28 0 0 1 1.17-.65c1 0 1.45.74 1.45 1.86v1.53c0 1.2-.57 2-1.76 2s-1.76-.78-1.76-2v-.52h.81v.58c0 .7.3 1.13.92 1.13s.92-.43.92-1.13v-1.52c0-.71-.29-1.13-.92-1.13a.84.84 0 0 0 -.88.84v.17h-.82l.21-4.35h3.09v.76h-2.3z" fill="#263238"/><path d="m69.12 83.12v.15h-.82v-.2c0-.71-.29-1.12-.93-1.12s-1 .42-1 1.26v1.79a1.26 1.26 0 0 1 1.26-.84c1 0 1.46.73 1.46 1.86v1.18c0 1.2-.59 2-1.79 2s-1.8-.78-1.8-2v-4c0-1.24.56-2 1.8-2s1.82.72 1.82 1.92zm-2.7 2.93v1.18c0 .7.29 1.13.93 1.13s.93-.43.93-1.13v-1.18c0-.7-.3-1.13-.93-1.13s-.93.43-.93 1.13z" fill="#263238"/><path d="m152.41 83.47h2.21v5.53h-2.21z" fill="#263238"/><path d="m155.36 82.36h2.21v6.64h-2.21z" fill="#263238"/><path d="m158.31 81.57h2.21v7.42h-2.21z" fill="#263238"/><path d="m161.25 80.2h2.21v8.79h-2.21z" fill="#263238"/><path d="m190.83 88.84h-13.27v-8.11h13.27zm-12.53-.73h11.79v-6.64h-11.79z" fill="#263238"/><path d="m179.41 82.27h7v5.03h-7z" fill="#263238"/><path d="m190.37 83.83h1.67v1.91h-1.67z" fill="#263238"/><path d="m172.7 87.08a.48.48 0 0 1 -.26-.07c-2.7-1.61-4.48-.12-4.56-.05a.49.49 0 0 1 -.69 0 .5.5 0 0 1 0-.7c.1-.08 2.38-2 5.72 0a.5.5 0 0 1 -.25.92z" fill="#263238"/><path d="m173.7 85.41a.48.48 0 0 1 -.26-.07c-3.9-2.32-6.53-.07-6.55 0a.5.5 0 0 1 -.66-.74s3.2-2.74 7.72-.06a.49.49 0 0 1 .17.68.48.48 0 0 1 -.42.19z" fill="#263238"/><path d="m174.6 83.48a.47.47 0 0 1 -.25-.07c-4.94-2.94-8.23-.17-8.37 0a.49.49 0 0 1 -.7 0 .48.48 0 0 1 .05-.69s3.94-3.38 9.53-.06a.5.5 0 0 1 .17.68.49.49 0 0 1 -.43.14z" fill="#263238"/><path d="m171.21 87.91a1.25 1.25 0 1 1 -1.21-1.24 1.24 1.24 0 0 1 1.21 1.24z" fill="#263238"/><path d="m121.53 217.66c22 .34 40.33 8.68 54.78 25.36a5.08 5.08 0 0 1 -.47 7.33 5 5 0 0 1 -7.15-.66 62.94 62.94 0 0 0 -18.47-14.9 61.21 61.21 0 0 0 -68.4 7.45 92.38 92.38 0 0 0 -7.42 7.39 5.17 5.17 0 0 1 -7.32.66 5.1 5.1 0 0 1 -.36-7.33 71.44 71.44 0 0 1 45.7-24.87c1.44-.19 2.89-.35 4.34-.41s3.18-.02 4.77-.02z" fill="#263238"/><path d="m123.35 238.05c13.9.36 27 6.29 37.24 18.17a5 5 0 0 1 -.46 7.3 5 5 0 0 1 -7.22-.7 39.62 39.62 0 0 0 -19.8-12.9c-16.11-4.36-30.11-.38-41.81 11.57-.44.45-.84.93-1.25 1.39a5.08 5.08 0 1 1 -7.68-6.65 51.11 51.11 0 0 1 16.38-12.85c7.19-3.57 14.82-5.3 24.6-5.33z" fill="#263238"/><path d="m146.21 272.81a5.08 5.08 0 0 1 -3.25 4.76 5 5 0 0 1 -5.66-1.42 21.34 21.34 0 0 0 -7.76-5.77c-8.34-3.54-17.54-1.38-23.75 5.62a4.92 4.92 0 0 1 -5.43 1.63 5.07 5.07 0 0 1 -2.36-8.11 30.52 30.52 0 0 1 47 .08 14.27 14.27 0 0 1 1.5 3.09z" fill="#263238"/><path d="m121.52 299.5a10.2 10.2 0 1 1 10.17-10.15 10.14 10.14 0 0 1 -10.17 10.15z" fill="#263238"/><path d="m121.58 182a72.72 72.72 0 1 0 72.71 72.71 72.8 72.8 0 0 0 -72.71-72.71zm-62.72 72.75a62.68 62.68 0 0 1 105.14-46.19l-88.61 88.57a62.52 62.52 0 0 1 -16.53-42.38zm62.72 62.72a62.4 62.4 0 0 1 -38.85-13.54l88-88a62.67 62.67 0 0 1 -49.18 101.57z" fill="#385489"/><path d="m427.5 454.81h-9.48l-2.03-22.56h13.54z" fill="#263238" stroke="#263238" stroke-miterlimit="10"/><path d="m466.98 454.81h-9.48l-2.03-22.56h13.54z" fill="#263238" stroke="#263238" stroke-miterlimit="10"/><path d="m372.23 454.81h-9.48l-2.02-22.56h13.53z" fill="#263238" stroke="#263238" stroke-miterlimit="10"/><path d="m329.93 454.81h-9.47l-2.03-22.56h13.53z" fill="#263238" stroke="#263238" stroke-miterlimit="10"/><path d="m375.17 286.9h98.52s.39 34.25-4.68 58.5-11.28 38.91-11.28 38.91h-93.62s13.89-53.64 11.06-97.41z" fill="#fff" stroke="#263238" stroke-miterlimit="10"/><path d="m416.06 292.13c-8.64-.68-12.07-2.42-18.53-6-8.41-4.61-10.21-1.54-9.61 3.07s-8.17 35-10 50.3-1.21 23.53-1.21 23.53-5.4 4.61-1.8 6.14a32.28 32.28 0 0 0 7.21 2.05h69.66s12.38-63.61 13.58-73.84-4.2-11.25-7.21-9.72-3.6 2.56-7.81 3.07c-9.84 1.27-22.44 2.32-34.28 1.4z" fill="#385489"/><path d="m393.63 293.16a16.26 16.26 0 0 0 3.69-7.1c-.84-.45-1.61-.82-2.32-1.12a13.69 13.69 0 0 1 -3.26 6.61 14.3 14.3 0 0 1 -4.54 3.65c-.18.91-.38 1.9-.6 3a16.06 16.06 0 0 0 7.03-5.04z" fill="#fff"/><path d="m456 313.06c-4.41 5.18-4.24 9.78-4.08 14.24.16 4.16.3 8.08-3.48 12.53s-7.69 4.92-11.82 5.44c-4.42.54-9 1.11-13.4 6.29s-4.25 9.78-4.08 14.23a28.53 28.53 0 0 1 -.15 5.47h2.52a33.48 33.48 0 0 0 .11-5.56c-.15-4.16-.3-8.09 3.49-12.53s7.68-4.93 11.82-5.44c4.42-.54 9-1.11 13.4-6.29s4.24-9.78 4.08-14.24c-.16-4.16-.3-8.09 3.49-12.53a14 14 0 0 1 5.34-4c.17-1 .34-1.92.5-2.83a16.07 16.07 0 0 0 -7.74 5.22z" fill="#fff"/><path d="m385.23 370.14c4.43-.55 9-1.12 13.41-6.3s4.24-9.78 4.08-14.23c-.16-4.16-.3-8.09 3.48-12.53s7.69-4.93 11.82-5.44c4.42-.55 9-1.11 13.4-6.29s4.25-9.79 4.08-14.24c-.15-4.16-.3-8.09 3.49-12.53s7.69-4.93 11.82-5.44 8.26-1 12.34-5.14a4.35 4.35 0 0 0 -2.74-.86 14.82 14.82 0 0 1 -7.92 3.27 19.67 19.67 0 0 1 -2.12.36l-3 .35a16.3 16.3 0 0 0 -10.27 5.88c-4.42 5.19-4.25 9.79-4.08 14.24.15 4.16.3 8.09-3.49 12.54s-7.68 4.92-11.82 5.43c-4.42.55-9 1.11-13.4 6.29s-4.24 9.79-4.08 14.24c.16 4.16.3 8.09-3.48 12.53s-7.69 4.93-11.82 5.44a23.21 23.21 0 0 0 -8.38 2.16 32.7 32.7 0 0 0 4 1.12 32.06 32.06 0 0 1 4.68-.85z" fill="#fff"/><path d="m379.74 347.75c4.41-5.18 4.24-9.78 4.08-14.23-.15-4.17-.3-8.09 3.49-12.54s7.68-4.92 11.81-5.43c4.42-.55 9-1.12 13.41-6.3s4.24-9.78 4.08-14.23c0-1-.07-1.91-.06-2.86h-.49l-2-.19c0 1.07 0 2.12.05 3.17.16 4.16.3 8.09-3.48 12.53s-7.69 4.93-11.82 5.44c-4.42.55-9 1.11-13.41 6.29s-4.24 9.78-4.07 14.24c.15 4.16.29 8.09-3.49 12.53-.21.25-.42.48-.64.7-.1 1.27-.19 2.47-.26 3.59a18.26 18.26 0 0 0 2.8-2.71z" fill="#fff"/><g stroke="#263238"><path d="m416.06 292.13c-8.64-.68-12.07-2.42-18.53-6-8.41-4.61-10.21-1.54-9.61 3.07s-8.17 35-10 50.3-1.21 23.53-1.21 23.53-5.4 4.61-1.8 6.14a32.28 32.28 0 0 0 7.21 2.05h69.66s12.38-63.61 13.58-73.84-4.2-11.25-7.21-9.72-3.6 2.56-7.81 3.07c-9.84 1.27-22.44 2.32-34.28 1.4z" fill="none" stroke-miterlimit="10"/><path d="m375.17 286.9h-5.57a4.49 4.49 0 0 0 -4.37 3.45l-6.92 29c-1.28 5.38-5.66 20.88-10.48 23.59a19.79 19.79 0 0 1 -9.69 2.53h-20.88l8.88 90.77h38l10-144.53a5.11 5.11 0 0 0 0-1h1.13z" fill="#fff" stroke-miterlimit="10"/><path d="m322.83 345.46h20.89a19.82 19.82 0 0 0 9.69-2.53c4.82-2.71 9.19-18.21 10.48-23.59l6.91-29a4.5 4.5 0 0 1 4.37-3.45 4.49 4.49 0 0 1 4.48 4.8l-10.25 144.54h-38z" fill="#fff" stroke-miterlimit="10"/><path d="m412.04 436.28 2.17-65.02-87.11-.77 2.18 65.79z" fill="#fff" stroke-miterlimit="10"/><path d="m479.26 286.9h-5.57a4.5 4.5 0 0 0 -4.37 3.45l-6.92 29c-1.28 5.38-5.65 20.88-10.48 23.59a19.76 19.76 0 0 1 -9.69 2.53h-20.88l3.65 90.76h42.82l10.35-144.53a4.39 4.39 0 0 0 0-1h1.13z" fill="#fff" stroke-miterlimit="10"/><path d="m426.92 345.46h20.89a19.82 19.82 0 0 0 9.69-2.53c4.82-2.71 9.2-18.21 10.48-23.59l6.92-29a4.49 4.49 0 0 1 4.36-3.45 4.48 4.48 0 0 1 4.48 4.8l-10.16 142.31a2.39 2.39 0 0 1 -2.37 2.21h-40.88z" fill="#fff" stroke-miterlimit="10"/><path d="m414.21 352-2.21 84.28h18.29l3.18-84.28a6.54 6.54 0 0 0 -6.55-6.54h-6.16a6.54 6.54 0 0 0 -6.55 6.54z" fill="#fff" stroke-miterlimit="10"/><path d="m307.94 352 3.14 84.28h18.29l-2.18-84.28a6.54 6.54 0 0 0 -6.54-6.54h-6.16a6.54 6.54 0 0 0 -6.55 6.54z" fill="#fff" stroke-miterlimit="10"/><path d="m327.54 399.23h85.84" fill="none" stroke-miterlimit="10"/><path d="m285.55 287.23s-7.94 44.12-9.68 51.58-6 45.49-6 54.94.74 38 .74 38-3.23 1.49-3.23 2.73 2.49 9.2 2.49 9.2l14.66 5.47s3-7 3.23-9.45-1.74-3.48-1.74-7.71 7.46-53.44 9.7-61.64 8.7-32.81 9.94-35.05 7.46-18.64 7.46-18.64l3.48 1.74s2.23 51.7 3.48 54.93 17.92 55.87 17.92 55.87-2.73 1.24-1 4.23 4.72 9.69 4.72 9.69 2.74-3.73 6-4.47 8.7 2.48 8.7 2.48 3.23-7.46 2.48-10.93-4-9.45-4.22-11.19-7-51.86-7-51.86 1.74-70.1 1.74-74.82a31.49 31.49 0 0 0 -1.74-9.45 117.57 117.57 0 0 1 -32.32 6.22c-17.65.74-27.34-6.46-27.34-6.46z" fill="#263238" stroke-miterlimit="10"/><path d="m269.91 443.71s-8.21 7.45-9.7 8.45-11.93 5-11.68 7 3 3.23 3 3.23h33.81s.24-1 .74-5.72a18.86 18.86 0 0 0 -1.49-8.95z" fill="#fff" stroke-miterlimit="10"/><path d="m285.83 458.76-37.12 1a6.16 6.16 0 0 0 2.8 2.57h33.81s.17-.67.51-3.57z" fill="#fff" stroke-miterlimit="10"/><path d="m341.74 443.12s-.25 6.21-.25 9.45-.49 7-.25 7.7.75 2 .75 2h19.64s.74-2-.25-5.72-2.74-5.71-3.23-9a36.31 36.31 0 0 0 -1.74-6.46s-9.7-7.66-14.67 2.03z" fill="#fff" stroke-miterlimit="10"/><path d="m361.89 459.91c-7.47 0-16.77-.24-20.72-.34a3.34 3.34 0 0 0 .07.7c.25.75.75 2 .75 2h19.64a7.22 7.22 0 0 0 .26-2.36z" fill="#fff" stroke-miterlimit="10"/><path d="m278.5 193.64s-21.12 19.83-20.2 21.68 6.7 16.86 6.7 16.86 1.66 10 .74 16.31a64.54 64.54 0 0 0 -.56 12.05 25.59 25.59 0 0 0 7 6.11c4.08 2.23 7.23 6.12 9.83-.18s1.48-17.61 1.48-17.61 3.51 13.72 4.1 16.14-2 22.24-2 22.24 12.74 10.76 34.41 8.32 28.54-10 28.54-10-2.23-24.28-2.23-27.06a54 54 0 0 0 -.37-5.75s7.6 7.79 11.31 7.42 10.19-15.57 8.52-18-7.41-12.25-10.93-19.29a85.73 85.73 0 0 1 -5.28-13.19s-6.12-20.76-8-22.24-22.7-1.25-26.41-2.17a124.1 124.1 0 0 0 -14.83-2c-1.24-.02-17.74 3.87-21.82 10.36z" fill="#385489" stroke-miterlimit="10"/><path d="m340.8 221.39c-.1-5.32-.12-9.46-.12-9.46" fill="none" stroke-miterlimit="10"/><path d="m346 252.75a78.12 78.12 0 0 1 -3.7-8.89c-.74-2.21-1.13-10.1-1.34-17.49" fill="none" stroke-miterlimit="10"/><path d="m272.93 230.8c-1.89-3.3-3.33-5.88-3.51-6.4" fill="none" stroke-miterlimit="10"/><path d="m283.51 248.86s-4.74-8-8.72-14.84" fill="none" stroke-miterlimit="10"/><path d="m307.6 185.85a92.16 92.16 0 0 1 .19 19.65" fill="none" stroke-miterlimit="10"/><path d="m320.07 277.32c2.23.45 4.62.86 7.17 1.19" fill="none" stroke-miterlimit="10"/><path d="m293.14 265.36s6 6.58 22 10.8" fill="none" stroke-miterlimit="10"/><path d="m309.45 279.44a50.88 50.88 0 0 0 21.87 4.45" fill="none" stroke-miterlimit="10"/><path d="m265.16 163.61s2.22 10.38 2.41 12.61.74 5.19 3.52 9.63 10 14.27 11.49 14.83 7.23-.93 7.23-.93 6.11 12.05 7.78 11.68 5.93-14.09 6.49-19.65a39.64 39.64 0 0 0 .18-8.34l-2.59-9.26s-2.22-13-2.22-13.9 1.29-7.6-5.93-10.38-16.13-3-22.06 3.89-6.3 9.82-6.3 9.82z" fill="#fff" stroke-miterlimit="10"/><path d="m285 151.94a33.32 33.32 0 0 1 -10 9.82c-6.85 4.45-3.52-.37-3.52-.37s-4.82 3-8.71 5-2.41 2.6-3.89 2-7-16.38 5.39-24 21.43-5.61 21.43-5.61-5.38-2.41-.56-2.41 6.86 2.63 6.86 2.63 2.59-.74 3.7.74a4.4 4.4 0 0 0 1.77 1.17c6 2.54 8.09 8.22 9.22 14.15.74 3.89-2.41 13.16-2.41 13.16l-5.2 2.78a12.88 12.88 0 0 1 -3-4.08 15.94 15.94 0 0 1 -.74-4.63s-3.15 4.07-3.71 1.11-2-10.56-2-10.56.56 3-1.29 3-3.34-3.9-3.34-3.9z" fill="#263238" stroke-miterlimit="10"/><path d="m298.7 172.32s-.18-6.3 3.53-8.34 6.3.19 5.18 6.12-7.78 8.15-7.78 8.15" fill="#fff" stroke-miterlimit="10"/><path d="m289.81 199.75 9.82-9.82-6.49 15.01z" fill="#263238" stroke-miterlimit="10"/></g><path d="m285.27 189.82a1.66 1.66 0 0 1 -.51 2.2c-.67.27-1.52-.28-1.9-1.23s-.15-1.94.51-2.21 1.51.29 1.9 1.24z" fill="#263238"/><path d="m287.83 172.66c.36 1.18.1 2.3-.57 2.51s-1.53-.58-1.89-1.75-.1-2.29.57-2.5 1.53.57 1.89 1.74z" fill="#263238"/><path d="m275.66 174.72c.36 1.18.1 2.3-.58 2.51s-1.52-.57-1.88-1.75-.11-2.29.57-2.5 1.52.57 1.89 1.74z" fill="#263238"/><path d="m276.1 170.1a7.06 7.06 0 0 1 2.59 5.56c0 3.71-.56 9.27-.56 9.27l6.68-.93" fill="none" stroke="#263238" stroke-miterlimit="10"/><path d="m280.54 167.69s3.34-5.93 8.53-4.82" fill="none" stroke="#263238" stroke-miterlimit="10"/><path d="m274.61 168.8s-4.07-1.29-6.85.37" fill="none" stroke="#263238" stroke-miterlimit="10"/><path d="m388 216.43s4.08-1.48 5.56-2 3 .37 5.56-.92 5.56-3.9 5.75-2-.75 2.59-2.23 3.52-3.89 2.78-3.89 2.78l-.74 1.85-11.12-.92s.21-1.74 1.11-2.31z" fill="#fff" stroke="#263238" stroke-miterlimit="10"/><path d="m410.35 221.22s5.11-4.05 5.85-5.9-.56-2-1.85-1.3-5.35 4.08-5.35 4.08z" fill="#fff" stroke="#263238" stroke-miterlimit="10"/><path d="m406.17 222.1s3.8.4 4.18-.88 3.38-9.34 2.89-10.35-1.44-.92-2.49.75a57.18 57.18 0 0 0 -2.9 7.07s-2.54.57-3.18 2.31 1.5 1.1 1.5 1.1z" fill="#fff" stroke="#263238" stroke-miterlimit="10"/><path d="m401.37 223.1s3.53 1.49 4.27.37 5.93-8 5.74-9.08-1.11-1.29-2.59 0a55.84 55.84 0 0 0 -4.82 5.93s-2.6-.18-3.71 1.3 1.11 1.48 1.11 1.48z" fill="#fff" stroke="#263238" stroke-miterlimit="10"/><path d="m349.67 253.5a23.39 23.39 0 0 1 10.38-14.27c8.89-5.75 20.95-16.13 20.95-16.13s4.08-5.74 7-6.67 12.6 1.85 12.6 1.85 7.79-7.78 8-6.11-3.7 7.6-5.56 9.82-7.6 2.78-8.89 2.78a67 67 0 0 0 -6.86.56c-.74.18-13 16.86-18.53 25s-8 9.63-11.49 9.82-7.23-2.6-8.16-3.89.56-2.76.56-2.76z" fill="#fff" stroke="#263238" stroke-miterlimit="10"/><path d="m233.77 222.82 11.68 25.34a1.86 1.86 0 0 0 2 1l9.69-1.79a1.85 1.85 0 0 0 1.36-2.52l-10.5-24.73a1.82 1.82 0 0 0 -1.89-1.11l-10.89 1.21a1.84 1.84 0 0 0 -1.45 2.6z" fill="#263238" stroke="#263238" stroke-miterlimit="10"/><path d="m241.44 244.51s-4.19-6.42-4.19-7.86 2.44-4.85 3.87-7.93 1.65-5.14 2.88-4.72 1 1.64.61 3.69a79.85 79.85 0 0 1 -2.66 7.8l.41 2.47a26.4 26.4 0 0 1 3.69-5.55c1.85-1.84 3.9-4.92 5.34-4.31s2.05 1 .82 2.47a42.71 42.71 0 0 0 -4.14 5.91 36.87 36.87 0 0 0 -2.79 5.58 42.73 42.73 0 0 1 4.37-3.66c2-1.44 4.82-3.52 6-2.7s1.44 1.64.21 2.67-2.35 1.73-4 3.17a60.68 60.68 0 0 0 -4.84 5.45 17.87 17.87 0 0 1 4.84-2.66c3.49-1.43 6.68-1.27 6.81-.17s-3.67 2.1-3.67 2.1c-2.72.62-2.85 1.55-2.85 1.55s2.26 4.52 1.85 6c0 0 9.12-1.43 12.61-2.45s8.94 1 10.59 2.65c3.49 3.49 5.13 8.83 3.29 13.35s-1.85 3.08-16.43-1-14.3-5.54-17.86-11.5c-1.29-2.32-4.76-10.35-4.76-10.35z" fill="#fff" stroke="#263238" stroke-miterlimit="10"/><path d="m254.06 253.77-.31 3.76" fill="none" stroke="#263238" stroke-miterlimit="10"/></svg>